HIERARCHY
ROOT Hips
{
	OFFSET 42.916302 -21.819614 95.866302
	CHANNELS 6 Xposition Yposition Zposition Xrotation Yrotation Zrotation
	JOINT spine
	{
		OFFSET 0.000000 -0.467661 8.132492
		CHANNELS 3 Xrotation Yrotation Zrotation
		JOINT spine1
		{
			OFFSET 0.000000 -0.000002 10.349800
			CHANNELS 3 Xrotation Yrotation Zrotation
			JOINT spine2
			{
				OFFSET 0.000000 -0.000002 9.916992
				CHANNELS 3 Xrotation Yrotation Zrotation
				JOINT Neck
				{
					OFFSET 0.000000 -1.213903 25.461006
					CHANNELS 3 Xrotation Yrotation Zrotation
					JOINT Head
					{
						OFFSET 0.000000 0.000000 7.692444
						CHANNELS 3 Xrotation Yrotation Zrotation
						End Site
						{
							OFFSET 0.000000 6.140627 18.619995
						}
					}
				}
				JOINT RightShoulder
				{
					OFFSET -4.175751 0.581444 10.709602
					CHANNELS 3 Xrotation Yrotation Zrotation
					JOINT RightArm
					{
						OFFSET 0.000000 -0.000002 14.046600
						CHANNELS 3 Xrotation Yrotation Zrotation
						JOINT RightArmRoll
						{
							OFFSET 0.000000 0.000000 7.090988
							CHANNELS 3 Xrotation Yrotation Zrotation
							JOINT RightForeArm
							{
								OFFSET 0.000000 -0.000004 20.653503
								CHANNELS 3 Xrotation Yrotation Zrotation
								JOINT RightForeArmRoll
								{
									OFFSET 0.000000 -0.000002 7.957184
									CHANNELS 3 Xrotation Yrotation Zrotation
									JOINT RightHand
									{
										OFFSET 0.000000 -0.000002 15.968307
										CHANNELS 3 Xrotation Yrotation Zrotation
										End Site
										{
											OFFSET 0.000000 0.000000 0.100006
										}
									}
								}
							}
						}
					}
				}
				JOINT LeftShoulder
				{
					OFFSET 4.175751 0.581444 10.709602
					CHANNELS 3 Xrotation Yrotation Zrotation
					JOINT LeftArm
					{
						OFFSET 0.000000 -0.000002 14.046600
						CHANNELS 3 Xrotation Yrotation Zrotation
						JOINT LeftArmRoll
						{
							OFFSET 0.000000 0.000000 7.090988
							CHANNELS 3 Xrotation Yrotation Zrotation
							JOINT LeftForeArm
							{
								OFFSET 0.000000 -0.000004 20.653503
								CHANNELS 3 Xrotation Yrotation Zrotation
								JOINT LeftForeArmRoll
								{
									OFFSET 0.000000 -0.000002 7.957184
									CHANNELS 3 Xrotation Yrotation Zrotation
									JOINT LeftHand
									{
										OFFSET 0.000000 -0.000002 15.968307
										CHANNELS 3 Xrotation Yrotation Zrotation
										End Site
										{
											OFFSET 0.000000 0.000000 0.100006
										}
									}
								}
							}
						}
					}
				}
			}
		}
	}
	JOINT RightUpLeg
	{
		OFFSET -7.208340 1.108841 -1.321823
		CHANNELS 3 Xrotation Yrotation Zrotation
		JOINT RightUpLegRoll
		{
			OFFSET 0.000000 -0.000004 18.723801
			CHANNELS 3 Xrotation Yrotation Zrotation
			JOINT RightLeg
			{
				OFFSET 0.000000 0.000004 -23.186600
				CHANNELS 3 Xrotation Yrotation Zrotation
				JOINT RightLegRoll
				{
					OFFSET 0.000000 -0.000004 23.262398
					CHANNELS 3 Xrotation Yrotation Zrotation
					JOINT RightFoot
					{
						OFFSET 0.000000 -0.000002 19.362099
						CHANNELS 3 Xrotation Yrotation Zrotation
						JOINT RightToeBase
						{
							OFFSET 0.000000 -0.000004 16.185699
							CHANNELS 3 Xrotation Yrotation Zrotation
							End Site
							{
								OFFSET 0.006859 0.903522 7.838623
							}
						}
					}
				}
			}
		}
	}
	JOINT LeftUpLeg
	{
		OFFSET 7.208340 1.108841 -1.321823
		CHANNELS 3 Xrotation Yrotation Zrotation
		JOINT LeftUpLegRoll
		{
			OFFSET 0.000000 -0.000004 18.723900
			CHANNELS 3 Xrotation Yrotation Zrotation
			JOINT LeftLeg
			{
				OFFSET 0.000000 -0.000004 23.186501
				CHANNELS 3 Xrotation Yrotation Zrotation
				JOINT LeftLegRoll
				{
					OFFSET 0.000000 -0.000004 23.477493
					CHANNELS 3 Xrotation Yrotation Zrotation
					JOINT LeftFoot
					{
						OFFSET 0.000000 -0.000002 19.147003
						CHANNELS 3 Xrotation Yrotation Zrotation
						JOINT LeftToeBase
						{
							OFFSET 0.000000 -0.000004 16.185699
							CHANNELS 3 Xrotation Yrotation Zrotation
							End Site
							{
								OFFSET -0.030746 0.903522 7.838623
							}
						}
					}
				}
			}
		}
	}
}
MOTION
Frames: 11
Frame Time: 0.041667
48.602497 -14.407223 96.016281 -4.595133 -0.880329 1.618328 -0.674992 -0.329091 0.057657 2.653205 -0.657522 0.114652 4.298321 -0.656304 0.122529 11.352279 7.545132 -1.466078 -3.589477 -4.246413 -1.603294 -14.500049 -55.121406 -17.016303 -42.208370 -120.983359 -19.407076 0.000004 0.000014 0.000000 1.356778 -6.195627 -0.536995 0.000004 -0.000003 -3.000539 -5.000202 -7.999229 0.000103 -18.393358 61.480554 21.747141 -44.277757 114.629631 31.772445 -0.000001 0.000001 0.000002 0.068415 8.420343 1.062905 -0.000006 -0.000029 3.027251 -5.000213 7.998958 -0.000117 -1.370146 -171.694331 4.737138 -179.999991 0.000006 -0.941004 165.966521 -2.018945 -0.815517 -0.000002 -0.000001 0.130917 71.584378 6.163458 3.956066 25.457783 -7.347661 0.001299 0.469037 173.483212 -1.184254 -0.000019 -0.000004 -1.023650 -11.981832 0.353152 0.611040 -0.000000 -0.000005 -0.158985 71.841876 -6.160499 -3.931469 25.463126 7.355620 -0.006170 
48.588898 -14.413621 96.018494 -4.598040 -0.885705 1.631711 -0.674308 -0.328862 0.057826 2.654644 -0.656305 0.114911 4.299762 -0.655069 0.122777 11.349993 7.538873 -1.463568 -3.578308 -4.238070 -1.600764 -14.500254 -55.127454 -17.016718 -42.211389 -120.973865 -19.423876 0.000005 0.000013 -0.000000 1.377568 -6.206540 -0.537079 0.000004 -0.000004 -3.000542 -5.000203 -7.999229 0.000103 -18.386278 61.478963 21.738853 -44.271353 114.618320 31.761592 0.000002 0.000001 0.000003 0.068416 8.420056 1.064292 -0.000005 -0.000029 3.027249 -5.000213 7.998960 -0.000117 -1.367828 -171.696339 4.736120 -179.999991 0.000007 -0.941003 165.954923 -2.016895 -0.815438 -0.000001 -0.000002 0.130904 71.595716 6.163207 3.957398 25.457785 -7.347663 0.001299 0.473610 173.483212 -1.183213 -0.000020 -0.000004 -1.023720 -11.974629 0.351061 0.610841 0.000001 -0.000005 -0.158980 71.835859 -6.160554 -3.933710 25.463126 7.355622 -0.006170 
48.576496 -14.424421 96.008789 -4.601056 -0.891127 1.644918 -0.673593 -0.328626 0.058030 2.656154 -0.655003 0.115195 4.301270 -0.653749 0.123048 11.347701 7.532359 -1.460984 -3.566999 -4.229569 -1.598136 -14.500155 -55.133936 -17.016786 -42.214718 -120.964508 -19.440038 0.000006 0.000014 0.000001 1.397743 -6.216853 -0.537172 0.000002 -0.000004 -3.000540 -5.000203 -7.999228 0.000101 -18.379296 61.477153 21.730675 -44.264950 114.607009 31.750691 0.000000 0.000001 0.000002 0.068417 8.419742 1.065754 -0.000007 -0.000029 3.027252 -5.000211 7.998960 -0.000115 -1.365982 -171.697336 4.734490 -179.999991 0.000005 -0.941004 165.942342 -2.013882 -0.815155 -0.000001 -0.000001 0.130886 71.607539 6.162828 3.959184 25.457782 -7.347662 0.001300 0.477956 173.483226 -1.182236 -0.000020 -0.000004 -1.023780 -11.968327 0.349068 0.610669 -0.000000 -0.000005 -0.159016 71.830272 -6.160614 -3.936228 25.463125 7.355622 -0.006170 
48.581295 -14.423222 96.012093 -4.604134 -0.896584 1.657990 -0.672860 -0.328385 0.058258 2.657693 -0.653642 0.115496 4.302809 -0.652370 0.123335 11.345302 7.525671 -1.458335 -3.555567 -4.220958 -1.595456 -14.499897 -55.140855 -17.016656 -42.218345 -120.955274 -19.455862 0.000004 0.000014 0.000001 1.417473 -6.226751 -0.537265 0.000002 -0.000003 -3.000542 -5.000205 -7.999230 0.000102 -18.372292 61.475042 21.722474 -44.259879 114.594919 31.741272 0.000001 0.000003 0.000003 0.068415 8.419405 1.067266 -0.000006 -0.000029 3.027249 -5.000214 7.998959 -0.000115 -1.364471 -171.699331 4.732476 -179.999991 0.000006 -0.941004 165.928859 -2.010848 -0.815895 -0.000002 -0.000002 0.130864 71.619738 6.162356 3.961332 25.457785 -7.347662 0.001300 0.482146 173.483212 -1.181311 -0.000020 -0.000005 -1.023820 -11.962623 0.347142 0.610517 0.000000 -0.000005 -0.159082 71.824999 -6.160669 -3.938628 25.463125 7.355620 -0.006170 
48.568897 -14.433121 96.021889 -4.607263 -0.902060 1.670990 -0.672117 -0.328141 0.058500 2.659262 -0.652248 0.115806 4.304378 -0.650956 0.123632 11.342903 7.518875 -1.455655 -3.544084 -4.212276 -1.592742 -14.499501 -55.147876 -17.016368 -42.221986 -120.946012 -19.471302 0.000004 0.000013 -0.000000 1.436968 -6.236405 -0.537358 0.000002 -0.000003 -3.000540 -5.000203 -7.999231 0.000101 -18.365293 61.472823 21.714271 -44.253479 114.583595 31.730327 0.000001 0.000000 0.000002 0.068418 8.419063 1.068806 -0.000005 -0.000029 3.027253 -5.000210 7.998959 -0.000117 -1.363139 -171.701325 4.730235 -179.999991 0.000005 -0.940007 165.915076 -2.006845 -0.815406 -0.000003 -0.000001 0.130839 71.632155 6.161848 3.963566 25.457783 -7.347662 0.001300 0.486244 173.483226 -1.180407 -0.000020 -0.000004 -1.023870 -11.957121 0.345255 0.610374 -0.000000 -0.000004 -0.159164 71.819938 -6.160728 -3.941216 25.463123 7.355620 -0.006171 
48.565796 -14.434523 96.019203 -4.610389 -0.907543 1.683968 -0.671369 -0.327896 0.058745 2.660842 -0.650844 0.116120 4.305957 -0.649533 0.123932 11.340401 7.512064 -1.452956 -3.532586 -4.203586 -1.590019 -14.499056 -55.154911 -17.016018 -42.225630 -120.936777 -19.486625 0.000006 0.000014 0.000002 1.456399 -6.245997 -0.537445 0.000000 -0.000003 -3.000540 -5.000204 -7.999231 0.000101 -18.358328 61.470596 21.706119 -44.246870 114.572216 31.719190 0.000001 0.000002 0.000005 0.068416 8.418722 1.070355 -0.000005 -0.000029 3.027251 -5.000214 7.998959 -0.000115 -1.361851 -171.703320 4.727929 -179.999991 0.000006 -0.940007 165.901101 -2.003820 -0.816164 -0.000002 -0.000002 0.130812 71.644682 6.161336 3.965789 25.457780 -7.347662 0.001300 0.490319 173.483240 -1.179510 -0.000019 -0.000005 -1.023909 -11.951818 0.343377 0.610237 -0.000000 -0.000005 -0.159250 71.814972 -6.160750 -3.943695 25.463125 7.355620 -0.006169 
48.563198 -14.427521 96.010689 -4.613503 -0.913017 1.696977 -0.670628 -0.327654 0.058983 2.662410 -0.649458 0.116428 4.307515 -0.648129 0.124226 11.338004 7.505288 -1.450284 -3.521114 -4.194922 -1.587313 -14.498695 -55.161933 -17.015782 -42.230404 -120.926792 -19.503475 0.000003 0.000015 0.000003 1.475950 -6.255710 -0.537521 0.000002 -0.000004 -3.000540 -5.000201 -7.999229 0.000103 -18.351385 61.468479 21.697986 -44.240447 114.560905 31.708235 0.000002 0.000002 0.000001 0.068416 8.418384 1.071886 -0.000005 -0.000029 3.027251 -5.000212 7.998958 -0.000118 -1.360473 -171.704303 4.725720 -179.999991 0.000005 -0.940006 165.887414 -1.999819 -0.815667 -0.000003 -0.000001 0.130789 71.657092 6.160823 3.968022 25.457783 -7.347662 0.001300 0.494443 173.483240 -1.178598 -0.000020 -0.000004 -1.023949 -11.946315 0.341480 0.610093 -0.000000 -0.000005 -0.159328 71.809802 -6.160805 -3.946289 25.463125 7.355621 -0.006169 
48.553902 -14.433419 96.012794 -4.616565 -0.918471 1.710088 -0.669898 -0.327415 0.059205 2.663940 -0.648114 0.116723 4.309055 -0.646765 0.124509 11.335609 7.498648 -1.447652 -3.509729 -4.186339 -1.584662 -14.498448 -55.168640 -17.015676 -42.233751 -120.917421 -19.519263 0.000004 0.000014 0.000002 1.495807 -6.265722 -0.537589 0.000001 -0.000003 -3.000541 -5.000203 -7.999230 0.000100 -18.344382 61.466477 21.689787 -44.235549 114.548870 31.698969 0.000001 0.000000 0.000004 0.068417 8.418054 1.073377 -0.000005 -0.000028 3.027251 -5.000213 7.998960 -0.000118 -1.358857 -171.706311 4.723822 -179.999991 0.000006 -0.940007 165.874136 -1.996787 -0.815397 -0.000003 -0.000001 0.130767 71.669209 6.160393 3.969982 25.457785 -7.347661 0.001299 0.498680 173.483240 -1.177658 -0.000020 -0.000005 -1.024000 -11.940415 0.339535 0.609937 -0.000001 -0.000005 -0.159385 71.804515 -6.160827 -3.948784 25.463123 7.355620 -0.006169 
48.538395 -14.417118 96.016685 -4.619551 -0.923887 1.723342 -0.669194 -0.327181 0.059398 2.665430 -0.646837 0.117000 4.310543 -0.645471 0.124773 11.333322 7.492211 -1.445094 -3.498459 -4.177886 -1.582091 -14.498460 -55.175026 -17.015849 -42.237084 -120.908063 -19.535625 0.000004 0.000015 0.000002 1.516181 -6.276229 -0.537630 0.000001 -0.000003 -3.000541 -5.000203 -7.999228 0.000101 -18.337349 61.464661 21.681549 -44.228948 114.537491 31.687891 0.000001 0.000002 0.000002 0.068414 8.417742 1.074823 -0.000005 -0.000029 3.027252 -5.000212 7.998958 -0.000117 -1.356871 -171.708292 4.722395 -179.999991 0.000006 -0.940007 165.861855 -1.993779 -0.815095 -0.000002 -0.000002 0.130750 71.680841 6.160052 3.971686 25.457785 -7.347663 0.001300 0.503093 173.484264 -1.176651 -0.000019 -0.000005 -1.024060 -11.933811 0.337513 0.609760 0.000001 -0.000005 -0.159410 71.798826 -6.160878 -3.951106 25.463119 7.355621 -0.006169 
48.523197 -14.423119 96.013985 -4.622418 -0.929255 1.736801 -0.668518 -0.326955 0.059554 2.666849 -0.645654 0.117248 4.311953 -0.644271 0.125009 11.331140 7.486059 -1.442633 -3.487351 -4.169601 -1.579616 -14.498815 -55.180945 -17.016448 -42.238856 -120.899239 -19.551406 0.000005 0.000015 0.000002 1.537222 -6.287394 -0.537654 0.000002 -0.000003 -3.000541 -5.000203 -7.999231 0.000101 -18.330332 61.463274 21.673334 -44.222517 114.526174 31.677021 -0.000000 0.000001 0.000003 0.068417 8.417465 1.076187 -0.000003 -0.000029 3.027250 -5.000212 7.998959 -0.000117 -1.354380 -171.709276 4.721577 -179.999991 0.000006 -0.940007 165.850667 -1.992699 -0.815237 -0.000003 -0.000002 0.130740 71.691872 6.159865 3.972945 25.457780 -7.347662 0.001299 0.507757 173.484264 -1.175589 -0.000019 -0.000005 -1.024130 -11.926308 0.335384 0.609553 -0.000001 -0.000004 -0.159388 71.792610 -6.160959 -3.953363 25.463125 7.355620 -0.006170 
48.515396 -14.399521 96.003891 -4.625144 -0.934559 1.750528 -0.667882 -0.326738 0.059662 2.668189 -0.644588 0.117462 4.313292 -0.643189 0.125213 11.329070 7.480252 -1.440290 -3.476460 -4.161534 -1.577272 -14.499539 -55.186118 -17.017466 -42.240311 -120.890318 -19.568125 0.000004 0.000015 0.000003 1.559151 -6.299396 -0.537646 -0.000001 -0.000003 -3.000543 -5.000202 -7.999229 0.000100 -18.323207 61.462209 21.664993 -44.217600 114.514146 31.667868 0.000000 0.000001 0.000000 0.068415 8.417216 1.077469 -0.000005 -0.000029 3.027251 -5.000211 7.998959 -0.000117 -1.351225 -171.710286 4.721586 -179.999991 0.000006 -0.940007 165.840968 -1.991648 -0.815331 -0.000002 -0.000002 0.130739 71.702124 6.159822 3.973676 25.457785 -7.347661 0.001300 0.512736 173.484264 -1.174435 -0.000020 -0.000005 -1.024220 -11.917805 0.333119 0.609310 0.000000 -0.000005 -0.159309 71.785766 -6.161072 -3.955458 25.463125 7.355620 -0.006170 
